<?xml version="1.0" encoding="utf-8"?>
<!-- Generator: Adobe Illustrator 22.0.0, SVG Export Plug-In . SVG Version: 6.00 Build 0)  -->
<svg version="1.1" id="Layer_1" xmlns="http://www.w3.org/2000/svg" xmlns:xlink="http://www.w3.org/1999/xlink" x="0px" y="0px"
	 viewBox="0 0 324 180" style="enable-background:new 0 0 324 180;" xml:space="preserve">
<style type="text/css">
	.st0{fill:#06AA48;}
</style>
<path class="st0" d="M55.1,0.1H78l0.2,0.6l4.1,0.5L84.3,2l2.1,0.6l0.9,0.3l1.6,0.5L90,3.9l1.4,0.3l1.9,0.9L96,6.4L99,8l2.7,1.4
	l1.7,1.3l1.6,0.9l1.9,1.7l1.9,1.1l1.9,1.7l6.3,6.3L118,24l0.6,1.1l1.1,1.1l1.1,1.6l0.8,1.3l1.1,1.6L124,33l3.6,7.3l1.1,2.1l0.6,0.6
	l0.8-1.6l1.9-2.1l3-3l0.6-0.3l1.6-0.2l0.9-0.8h7.9l0.8,0.3l2.7,1.4l1.3,0.6l2.5,2.5l1.1,2.1l0.6,1.4l0.9,1.4l0.6-0.3l2.2-2.1
	l2.1-2.1l1.7-0.9l1.6-1.3l4.1-2.1l2.4-0.6l0.3-0.3l2.5-0.3l2.1-0.2l0.5-0.6l3-0.2h7.6l2.8,0.2l0.3,0.2l0.2,0.5l0.8,0.2h1.4l1.4,0.3
	l0.5,0.5l2.4,0.5l0.8,0.6l1.9,0.3l4.4,2.2l1.4,1.3l1.9,0.9l2.1,2.1l1.4,0.6l1.3,1.1l0.9,1.1l0.8,1.6l2.8,2.8l1.3,2.2l1.3,1.6
	l0.3,1.1l0.6,0.2l-0.2-0.6l-0.8-0.8l-0.2-0.6V52l0.3-3.3l0.6-1.3l0.3-3.6l0.5-0.9l0.3-0.9l0.3-1.4l1.4-2.7l1.7-3.5l2.2-2.4l5.1-5.1
	l1.6-0.9l3.6-1.9l2.7-1.3l1.1-0.6l2.1-0.5l0.6-0.5l2.2-0.3l0.6-0.6l1.3-0.2l5.2-0.2l0.6-0.8h8.5l0.3,0.9l2.2-0.2l3.8,0.2l0.8,0.3
	l0.3,0.5l1.3,0.2h1.1l1.4,0.5l0.2,0.3l2.2,0.3l0.6,0.3l0.2,0.3l2.4,0.5l1.1,0.6l3,1.4l2.2,1.3l2.1,1.9l3,3l1.1,1.7l1.7,3.5l0.2,0.8
	v3.8l-0.2,1.6l-0.6,0.3l-0.3,2.4l-1.4,1.7l-0.9,1.9l-0.9,0.8l-1.1,0.3l-0.9,0.6l-1.3,0.5l-0.5,0.5l-0.6,0.2h-7l-0.6-0.8l-1.1-0.2
	l-0.9-0.9h-1.3l-1.1-0.3l-0.6-0.6l-1.3-0.3l-0.6-0.6l-1.3-0.3l-0.8-0.6l-1.4-0.5l-0.6-0.5l-1.7-0.3l-0.8-0.5l-0.5-0.3l-0.9-0.2h-1.7
	l-1.4-0.2l-0.9-0.6l-1.9-0.2l-1.3,0.2l-0.5,0.6l-2.1,0.3l-1.1,0.6l-1.1,0.3l-1.1,0.9l-0.6,1.7l-0.5,0.6l-0.2,2.2l0.3,1.1l0.6,1.4
	l0.5,0.8l0.9,0.8l1.4,0.6l1.3,1.3l1.7,0.6l0.5,0.5l2.4,0.5l0.8,0.6l1.4,0.5l0.3,0.5l1.1,0.2l1.3,0.2l0.6,0.6l2.2,0.3l0.6,0.6
	l1.7,0.5l0.5,0.6l2.2,0.3l0.5,0.3v0.3l1.4,0.3l0.8,0.6l1.9,0.3l2.8,1.4l1.4,0.6l1.7,1.4l1.7,0.9l1.6,1.3l1.6,0.8l6.3,6.3l1.6,2.8
	l0.9,2.1l0.3,1.6V86h0.8l-0.2-0.3v-75l0.3-1.4l1.3-2.2l1.1-1.3l0.8-0.8l1.6-1.4l0.9-0.6l1.6-0.8l2.1-0.3l0.6-0.6l1.3-0.2h4.4
	l2.1,0.3l0.8,0.5l1.9,0.5l2.4,1.3l1.7,1.6l1.1,1.6l2.1,4.1l0.2,0.9v76.7l-0.2,4l-0.8,1.3l-0.6,1.3l-1.3,1.3l-0.8,0.9h-0.3l-0.3,0.6
	l-1.4,1.1l-1.1,0.3l-0.5,0.5l-2.4,0.3l-0.8,0.8l-4.9,0.2h-3.5l-0.8-0.9l-1.1-0.2l-0.8-0.8l-0.9-0.2l-1.9-1.7l-2.4-2.4l-0.8-1.6v-0.3
	H295v3.6l-0.2,4l-0.8,0.9v1.3l-0.3,1.1l-0.6,0.5v1.3l-0.3,1.1l-1.6,1.6l-0.5,1.4l-1.1,1.3l-0.5,0.5l-0.3,1.1l-2.2,2.4l-0.6,0.3
	l-0.3,0.6l-1.3,1.1l-0.9,0.2l-1.3,1.1h-0.3l-0.2,0.5l-1.4,0.6l-1.7,1.4l-1.1,0.3l-0.9,0.6l-2.1,0.5l-1.1,0.6l-1.3,0.5l-0.8,0.5
	l-2.4,0.3l-0.8,0.2l-0.3,0.5l-2.2,0.2l-1.6,0.3h-1.7l-0.3,0.5l-0.5,0.2h-11.4l-1.1-0.2l-0.5-0.5l-2.7-0.2l-1.4-0.2l-1.4-0.3
	l-0.5-0.3l-2.1-0.3l-1.6-0.5l-2.7-0.8l-0.8-0.5l-2.2-0.6l-1.9-0.8l-0.9-0.6l-3.6-1.7l-1.7-0.9l-1.7-1.4l-1.1-0.3l-0.9-0.8l-0.2,1.6
	l-1.7,1.7l-0.5,1.4l-1.3,1.4h-0.3l-0.3,1.4l-2.2,2.4l-5.4,5.4l-1.3,1.1l-0.5,0.5l-1.1,0.3l-1.7,1.6l-1.4,0.6l-1.9,1.4l-1.1,0.5
	l-1.7,0.6l-1.4,0.5l-1.3,0.5l-1.7,0.5l-0.3,0.3l-2.7,0.5l-0.2,0.5l-0.6,0.2l-3,0.2h-11.9l-2.4-0.2l-0.3-0.5l-2.7-0.6l-1.4-0.6
	l-1.4-0.3l-0.8-0.5l-2.2-0.6l-2.4-1.3l-1.4-1.1l-1.6-0.9l-1.7-1.3l-0.8-0.3l-0.2,1.3l-0.2,33.4l-0.2,3.3l-0.6,0.3l-0.2,0.9v1.1
	l-0.5,0.8l-2.2,2.4l-2.2,2.1l-2.7,1.4l-2.4,0.6l-0.3,0.6H140l-0.2-0.9l-3.3-0.2l-2.4-1.3l-3.8-3.8l-1.3-2.4L128,169l-0.2-68.3
	l-0.5,0.5l-0.6,1.6l-1.6,3l-1.3,2.7l-1.6,2.1l-0.6,1.3l-1.4,1.7l-0.5,1.1l-1.4,1.6l-2.1,2.1l-0.5,1.4l-5.2,5.2l-1.1,0.2l-3.2,3.2
	l-0.8,0.6l-1.3,0.5l-1.1,0.9l-2.5,1.4l-3.3,1.6l-4.7,2.4l-2.2,0.6l-1.1,0.5l-1.9,0.5l-0.8,0.5l-2.2,0.5l-0.6,0.5l-2.2,0.3l-2.4,0.2
	l-0.3,0.6l-3.8,0.2H58.4l-3.2-0.2l-0.6-0.5l-2.4-0.3l-2.1-0.3l-0.5-0.3l-3.3-0.6l-1.6-0.6l-1.6-0.5l-2.2-0.9l-0.5-0.5l-1.9-0.3
	l-3-1.6l-3.8-1.9l-1.1-1.1l-1.6-0.6l-1.4-1.4l-1.1-0.3l-1.6-1.4l-10.1-10.1l-1.6-2.4l-1.3-1.7l-0.8-1.4l-0.9-1.3l-1.9-3.6l-4-7.9
	L3,93.7l-0.5-2.5l-0.3-0.5l-0.5-3l-0.6-1.4l-0.5-4L0.5,82L0,81.9V58.1l0.6-0.5l0.6-4.4l0.5-1.4l0.5-2.4l0.5-0.9l0.5-3l0.6-1.6
	L4.4,42l1.4-2.7L6.3,38l0.5-1.1l0.3-1.4l1.7-2.2l1.4-3l0.8-0.9l0.8-1.1l0.5-0.9l1.4-1.9l0.6-1.3l2.5-2.5l0.6-0.8h0.3l0.3-0.6
	l0.8-0.6l0.6-0.8l4-4l1.3-1.1l1.1-1.1l0.9-0.6l1.1-0.6l1.7-1.3l1.6-0.9l1.3-0.9l2.5-1.3l3.3-1.7l2.1-0.5L41.6,4l1.1-0.5l0.8-0.5
	l2.1-0.3l0.8-0.6L48.7,2l1.1-0.3l0.5-0.5L51.4,1l3.2-0.2L55.1,0.1z M62.3,27l-2.2,0.2l-0.6,0.6l-3,0.3l-0.9,0.6L53.6,29l-2.5,1.3
	L49,31.4l-1.4,1.3l-1.1,0.5l-1.6,1.3l-1.3,1.4l-1.6,1.6L41,38.3l-0.8,0.8l-0.6,0.8l-0.5,0.5l-0.5,1.3l-1.3,1.4l-3.2,6.3L33.5,52
	l-0.5,0.6l-0.3,2.7l-0.6,1.1L31.6,60l-0.5,0.2L31,62.6V79l0.3,0.9l0.3,0.6l0.5,4l0.6,1.6l0.5,1.6l0.9,2.8l1.3,2.5l1.7,3.6l1.1,2.1
	l1.7,1.9l0.6,0.8l0.5,1.1l1.4,1.6l1.4,0.9l1.1,0.6l1.1,1.1l1.3,0.9l2.5,1.3l2.7,1.3l2.4,1.3l0.3,0.3l0.6,0.2h2.2l0.6,0.3l0.3,0.5
	h14.4l0.6-0.6l1.3-0.2h1.1l1.3-0.5l0.6-0.5l1.7-0.2l1.3-0.8l1.4-0.6l1.6-1.3l1.3-0.6l1.9-1.4l1.6-0.9l3.2-3.2l0.9-1.6l0.9-1.3
	l0.9-1.6l1.6-2.2l1.1-2.4l0.5-1.7l1.3-2.5l0.8-2.5l0.5-1.1l0.3-3.8l0.6-0.8l0.2-1.9v-7.3l-0.2-12.2l-0.6-0.6l-0.3-2.7l-0.5-1.1
	l-0.8-2.7l-0.5-0.9l-0.5-1.9l-4-7.9L93,39.5L91.8,38L91,37.2l-0.8-0.6l-4.1-4.1L85.4,32l-1.3-0.5l-0.9-0.6l-1.1-0.5L81.5,30
	l-1.4-0.5L78.9,29l-1.6-0.3l-1.1-0.6l-3-0.5l-0.8-0.5L70.2,27H62.3z M174.5,59.9l-1.4,0.3l-0.2,0.5l-2.2,0.3l-2.8,1.4l-1.7,0.9
	l-1.9,1.7l-0.8,0.8l-0.9,1.1l-0.5,0.5l-0.5,1.3l-1.4,1.6l-0.6,1.7l-0.3,0.3l-0.6,2.5l-0.5,0.6l-0.3,2.4l-0.6,0.3l-0.3,6.5l-0.8,0.6
	l-0.2,0.8l0.5,0.8l0.5,0.5l0.2,6.6l0.3,0.8l0.5,0.8l0.3,2.8l1.7,3.3l1.4,3l1.1,2.1l3.8,3.8l1.9,0.9l1.3,1.3l2.1,0.3l0.6,0.3l0.2,0.3
	l0.9,0.2h9.8l1.3-0.5l2.7-1.4l1.1-0.6l1.6-1.4l3.8-3.8l0.6-0.9l1.7-3.5l0.6-1.4l0.6-1.3l0.5-1.9l0.5-0.9l0.3-2.7l0.6-0.9l0.2-1.7
	v-8.1l-0.3-0.8l-0.5-0.2l-0.2-2.1l-0.2-2.2l-0.6-1.1l-0.6-2.4l-1.9-3.8l-1.4-1.9l-0.6-1.3l-2.2-2.4l-1.7-1.6l-0.5-0.3l-0.9-0.3
	l-0.9-0.6l-1.1-0.3l-0.9-0.6l-1.9-0.3l-1.1-0.6l-2.8-0.2H174.5z M224.8,68.9l0.5,1.9l0.5,0.6l0.2,3.2l0.8,0.6l0.2,1.3v5.1l0.2,1.3
	l0.6,0.3l0.2,0.3l0.2,8.4l0.8,0.2l4.3,0.2l0.8,0.2l0.6,0.6l2.1,0.3l0.9,0.6l1.4,0.6l3.8,1.9h0.3l0.2,0.5l1.1,0.9l1.6,0.6l0.6,0.5
	l0.8,0.2l1.3,0.2l0.6,0.6h0.8l0.5,0.2h1.3l1.1,0.3l0.3,0.5l1.6,0.2h6.3l0.9-0.3l0.3-0.5l1.7-0.2l0.9-0.5l1.6-1.6l0.6-1.3l0.6-1.1
	L268,95v-2.4l-1.1-1.4l-2.2-2.2l-1.4-1.1l-1.1-0.3l-0.8-0.6l-1.1-0.3l-0.8-0.6l-1.4-0.5l-0.5-0.5l-1.7-0.3l-0.8-0.3l-0.3-0.3
	l-1.9-0.3l-1.1-0.6l-1.4-0.5l-0.8-0.6l-2.1-0.3l-0.8-0.6l-1.7-0.3l-0.8-0.3l-0.6-0.5l-1.4-0.5l-0.5-0.5l-1.4-0.5l-0.6-0.5l-1.3-0.5
	l-0.8-0.3v-0.3l-1.4-0.5l-0.6-0.5l-1.1-0.5l-1.3-1.1l-0.5-0.5l-0.9-0.2l-1.9-1.7l-1.1-0.9l-1.3-0.5l-1.6-1.3l-0.6-0.5H224.8z"/>
<path class="st0" d="M306.4,111h5.1l0.8,0.8l1.7,0.2l0.9,0.5l1.4,0.6l2.5,1.4l1.7,1.6l1.3,1.7l0.6,1.3l0.9,1.7l0.5,0.5v10.4
	l-0.6,0.5l-0.6,1.6l-1.1,1.9l-1.4,1.6l-1.1,1.3l-1.4,1.3l-1.4,0.5l-0.5,0.5l-2.2,0.3l-0.9,0.8l-7.3,0.2l-0.8-0.8l-1.4-0.5l-0.6-0.5
	l-1.4-0.6l-0.6-0.5l-1.1-0.5l-1.6-1.4l-1.3-1.3l-1.6-3l-0.9-2.1v-8.5l0.3-1.3l0.5-0.6l0.6-1.4l1.4-1.6l0.5-1.3l1.3-1.4l1.1-0.8
	l3-1.4l1.1-0.6l1.7-0.2L306.4,111z"/>
</svg>
