<svg xmlns="http://www.w3.org/2000/svg" width="900" height="500" viewBox="0 0 900 500" version="1.1"><path d="M 145.833 0.682 C 142.546 0.921, 139.660 1.705, 138.961 2.547 C 138.206 3.457, 135.918 4, 132.846 4 C 129.405 4, 127.765 4.449, 127.362 5.500 C 127.012 6.410, 125.500 7, 123.515 7 C 121.717 7, 119.685 7.675, 119 8.500 C 118.315 9.325, 116.965 10, 116 10 C 115.035 10, 113.685 10.675, 113 11.500 C 112.315 12.325, 110.235 13, 108.378 13 C 106.520 13, 105 13.450, 105 14 C 105 14.550, 104.155 15, 103.122 15 C 102.090 15, 100.685 15.675, 100 16.500 C 99.315 17.325, 97.965 18, 97 18 C 96.035 18, 94.685 18.675, 94 19.500 C 93.315 20.325, 91.994 21, 91.065 21 C 90.135 21, 88.081 22.350, 86.500 24 C 84.919 25.650, 82.974 27, 82.178 27 C 81.381 27, 79.687 28.125, 78.412 29.500 C 77.138 30.875, 75.456 32, 74.675 32 C 72.920 32, 38 66.628, 38 68.369 C 38 69.060, 36.650 70.919, 35 72.500 C 33.350 74.081, 32 76.112, 32 77.013 C 32 77.914, 30.875 79.708, 29.500 81 C 28.125 82.292, 27 84.184, 27 85.206 C 27 86.227, 26.325 87.322, 25.500 87.638 C 24.675 87.955, 24 89.277, 24 90.577 C 24 92.043, 22.861 93.782, 21 95.158 C 18.736 96.832, 18 98.174, 18 100.629 C 18 102.418, 17.550 104.160, 17 104.500 C 16.450 104.840, 16 106.006, 16 107.090 C 16 108.175, 15.325 109.322, 14.500 109.638 C 13.675 109.955, 13 111.305, 13 112.638 C 13 113.972, 12.325 115.322, 11.500 115.638 C 10.532 116.010, 10 117.557, 10 120 C 10 122.443, 9.468 123.990, 8.500 124.362 C 7.448 124.765, 7 126.407, 7 129.862 C 7 133.316, 6.552 134.958, 5.500 135.362 C 4.449 135.765, 4 137.405, 4 140.846 C 4 144.134, 3.470 146.195, 2.394 147.088 C 1.168 148.106, 0.892 149.684, 1.229 153.753 C 1.473 156.686, 1.295 159.317, 0.836 159.601 C -0.257 160.277, -0.257 228.723, 0.836 229.399 C 1.295 229.683, 1.473 232.314, 1.229 235.247 C 0.892 239.316, 1.168 240.894, 2.394 241.912 C 3.414 242.758, 4 244.817, 4 247.551 C 4 250.045, 4.631 252.488, 5.500 253.357 C 6.399 254.256, 7 256.702, 7 259.460 C 7 262.629, 7.467 264.242, 8.500 264.638 C 9.468 265.010, 10 266.557, 10 269 C 10 271.443, 10.532 272.990, 11.500 273.362 C 12.325 273.678, 13 274.796, 13 275.846 C 13 276.896, 13.675 278.315, 14.500 279 C 15.325 279.685, 16 281.063, 16 282.063 C 16 283.064, 16.450 284.160, 17 284.500 C 17.550 284.840, 18 286.006, 18 287.090 C 18 288.175, 18.675 289.322, 19.500 289.638 C 20.325 289.955, 21 291.243, 21 292.500 C 21 293.757, 21.675 295.045, 22.500 295.362 C 23.325 295.678, 24 297.028, 24 298.362 C 24 299.695, 24.675 301.045, 25.500 301.362 C 26.325 301.678, 27 302.773, 27 303.794 C 27 304.816, 28.125 306.708, 29.500 308 C 30.875 309.292, 32 311.079, 32 311.971 C 32 312.864, 33.331 314.698, 34.958 316.047 C 36.584 317.396, 37.934 319.220, 37.958 320.100 C 38.010 322.066, 72.318 356.354, 74.750 356.871 C 75.709 357.075, 77.487 358.313, 78.700 359.621 C 79.912 360.929, 81.526 362, 82.286 362 C 83.045 362, 84.979 363.338, 86.583 364.972 C 88.188 366.607, 90.232 367.957, 91.128 367.972 C 92.023 367.988, 93.315 368.675, 94 369.500 C 94.685 370.325, 95.714 371, 96.286 371 C 98.060 371, 105 374.339, 105 375.192 C 105 375.637, 106.520 376, 108.378 376 C 110.235 376, 112.315 376.675, 113 377.500 C 113.685 378.325, 115.035 379, 116 379 C 116.965 379, 118.315 379.675, 119 380.500 C 119.685 381.325, 121.572 382, 123.194 382 C 124.816 382, 126.818 382.675, 127.643 383.500 C 128.518 384.376, 130.962 385, 133.512 385 C 135.916 385, 138.160 385.450, 138.500 386 C 138.840 386.550, 141.736 387, 144.937 387 C 148.889 387, 151.154 387.481, 152 388.500 L 153.245 390 186.515 390 L 219.786 390 220.362 388.500 C 220.792 387.379, 222.585 387, 227.469 387 C 231.156 387, 234 386.565, 234 386 C 234 385.450, 235.520 385, 237.378 385 C 239.235 385, 241.315 384.325, 242 383.500 C 242.685 382.675, 244.779 382, 246.654 382 C 248.762 382, 250.282 381.427, 250.638 380.500 C 250.988 379.590, 252.500 379, 254.485 379 C 256.283 379, 258.315 378.325, 259 377.500 C 259.685 376.675, 261.035 376, 262 376 C 262.965 376, 264.315 375.325, 265 374.500 C 265.685 373.675, 266.714 373, 267.286 373 C 269.060 373, 276 369.661, 276 368.808 C 276 368.363, 276.845 368, 277.878 368 C 278.910 368, 280.315 367.325, 281 366.500 C 281.685 365.675, 283.011 365, 283.948 365 C 284.885 365, 286.708 363.875, 288 362.500 C 289.292 361.125, 291.072 360, 291.956 360 C 292.839 360, 296.234 357.300, 299.500 354 C 302.766 350.700, 305.999 348, 306.686 348 C 308.382 348, 323 333.469, 323 331.783 C 323 331.043, 325.700 327.766, 329 324.500 C 332.300 321.234, 335 317.794, 335 316.854 C 335 315.914, 336.125 314.260, 337.500 313.179 C 338.875 312.097, 340 310.339, 340 309.271 C 340 308.204, 341.350 306.128, 343 304.658 C 344.650 303.187, 346 301.088, 346 299.992 C 346 298.897, 346.450 298, 347 298 C 347.550 298, 348 296.923, 348 295.607 C 348 294.291, 348.675 292.955, 349.500 292.638 C 350.325 292.322, 351 291.204, 351 290.154 C 351 289.104, 351.675 287.685, 352.500 287 L 354 285.755 354 378.909 L 354 472.063 355.500 472.638 C 356.325 472.955, 357 474.305, 357 475.638 C 357 476.972, 357.675 478.322, 358.500 478.638 C 359.325 478.955, 360 480.028, 360 481.024 C 360 483.056, 372.230 495.298, 374.826 495.866 C 375.747 496.067, 376.798 496.705, 377.163 497.284 C 379.302 500.679, 409.726 500.630, 411.872 497.228 C 412.217 496.680, 413.260 496.067, 414.189 495.866 C 415.118 495.665, 419.505 491.962, 423.939 487.638 L 432 479.776 432 476.495 C 432 474.485, 432.587 472.989, 433.517 472.632 L 435.034 472.050 434.982 420.287 C 434.927 366.033, 434.957 365.692, 439.342 370.424 C 440.655 371.841, 442.381 373, 443.178 373 C 443.974 373, 445.919 374.350, 447.500 376 C 449.081 377.650, 451.135 379, 452.065 379 C 452.994 379, 454.315 379.675, 455 380.500 C 455.685 381.325, 457.572 382, 459.194 382 C 460.816 382, 462.818 382.675, 463.643 383.500 C 464.468 384.325, 466.434 385, 468.012 385 C 469.591 385, 471.160 385.450, 471.500 386 C 471.840 386.550, 473.681 387, 475.590 387 C 477.754 387, 479.280 387.565, 479.638 388.500 L 480.214 390 505.178 390 C 526.036 390, 530.390 389.753, 531.643 388.500 C 532.468 387.675, 534.434 387, 536.012 387 C 537.591 387, 539.160 386.550, 539.500 386 C 539.840 385.450, 541.409 385, 542.988 385 C 544.566 385, 546.532 384.325, 547.357 383.500 C 548.182 382.675, 550.184 382, 551.806 382 C 553.428 382, 555.315 381.325, 556 380.500 C 556.685 379.675, 558.006 379, 558.935 379 C 559.865 379, 561.919 377.650, 563.500 376 C 565.081 374.350, 567.157 373, 568.115 373 C 569.072 373, 570.740 371.875, 571.821 370.500 C 572.903 369.125, 574.468 368, 575.300 368 C 577.177 368, 604 341.370, 604 339.507 C 604 338.763, 605.380 336.774, 607.066 335.088 C 608.752 333.402, 609.893 331.636, 609.601 331.164 C 609.310 330.692, 610.405 329.028, 612.036 327.466 C 613.666 325.904, 615 323.740, 615 322.658 L 615 320.690 616.829 322.345 C 617.835 323.255, 619.137 324, 619.724 324 C 620.310 324, 621.850 325.117, 623.145 326.483 C 624.440 327.848, 626.232 328.973, 627.128 328.983 C 628.023 328.992, 629.315 329.675, 630 330.500 C 630.685 331.325, 632.035 332, 633 332 C 633.965 332, 635.315 332.675, 636 333.500 C 636.685 334.325, 638.090 335, 639.122 335 C 640.155 335, 641 335.450, 641 336 C 641 336.550, 641.845 337, 642.878 337 C 643.910 337, 645.315 337.675, 646 338.500 C 646.685 339.325, 648.710 340, 650.500 340 C 652.290 340, 654.315 340.675, 655 341.500 C 655.685 342.325, 657.572 343, 659.194 343 C 660.816 343, 662.818 343.675, 663.643 344.500 C 664.503 345.360, 666.946 346, 669.371 346 C 671.697 346, 674.119 346.519, 674.753 347.153 C 675.450 347.850, 678.698 348.224, 682.964 348.100 C 688.554 347.937, 690.146 348.217, 690.618 349.447 L 691.214 351 709.485 351 C 724.505 351, 727.977 350.733, 729 349.500 C 729.901 348.415, 732.285 348, 737.622 348 C 741.874 348, 745 347.576, 745 347 C 745 346.450, 747.195 346, 749.878 346 C 752.993 346, 755.205 345.458, 756 344.500 C 756.685 343.675, 758.035 343, 759 343 C 759.965 343, 761.315 342.325, 762 341.500 C 762.685 340.675, 764.717 340, 766.515 340 C 768.500 340, 770.012 339.410, 770.362 338.500 C 770.678 337.675, 771.773 337, 772.794 337 C 773.816 337, 775.708 335.875, 777 334.500 C 778.292 333.125, 780.086 332, 780.987 332 C 781.888 332, 783.919 330.650, 785.500 329 C 787.081 327.350, 789.044 326, 789.863 326 C 791.622 326, 804 313.710, 804 311.964 C 804 311.304, 805.360 309.215, 807.022 307.322 C 808.684 305.429, 809.808 303.498, 809.519 303.031 C 809.231 302.564, 810.346 301.045, 811.997 299.656 C 814.268 297.745, 815 296.286, 815 293.672 C 815 291.521, 815.567 289.996, 816.500 289.638 C 817.427 289.282, 818 287.762, 818 285.654 C 818 283.779, 818.657 281.699, 819.461 281.032 C 820.471 280.194, 821.011 277.319, 821.211 271.725 L 821.500 263.630 827.585 269.815 C 830.931 273.217, 834.364 276, 835.212 276 C 836.061 276, 837.315 276.675, 838 277.500 C 838.685 278.325, 840.035 279, 841 279 C 841.965 279, 843.315 279.675, 844 280.500 C 845.811 282.682, 868.189 282.682, 870 280.500 C 870.685 279.675, 872.779 279, 874.654 279 C 876.762 279, 878.282 278.427, 878.638 277.500 C 878.955 276.675, 879.970 276, 880.895 276 C 882.896 276, 896 263.485, 896 261.573 C 896 260.843, 896.675 259.685, 897.500 259 L 899 257.755 899 142.846 L 899 27.937 897.500 27.362 C 896.675 27.045, 896 25.966, 896 24.964 C 896 23.963, 895.325 22.468, 894.500 21.643 C 893.675 20.818, 893 19.533, 893 18.787 C 893 16.898, 882.790 7, 880.841 7 C 879.963 7, 878.685 6.325, 878 5.500 C 877.315 4.675, 875.515 4, 874 4 C 872.485 4, 870.685 3.325, 870 2.500 C 868.202 0.334, 848.798 0.334, 847 2.500 C 846.315 3.325, 844.221 4, 842.346 4 C 840.238 4, 838.718 4.573, 838.362 5.500 C 838.045 6.325, 837.047 7.010, 836.143 7.022 C 833.818 7.053, 821 19.660, 821 21.916 C 821 22.944, 820.325 24.045, 819.500 24.362 L 818 24.937 818 128.091 L 818 231.245 816.500 230 C 815.675 229.315, 815 227.965, 815 227 C 815 226.035, 814.325 224.685, 813.500 224 C 812.675 223.315, 812 222.122, 812 221.349 C 812 219.402, 791.865 199.010, 789.937 199.005 C 789.077 199.002, 787.081 197.650, 785.500 196 C 783.919 194.350, 781.888 193, 780.987 193 C 780.086 193, 778.292 191.875, 777 190.500 C 775.708 189.125, 773.885 188, 772.948 188 C 772.011 188, 770.685 187.325, 770 186.500 C 769.315 185.675, 767.958 185, 766.985 185 C 766.011 185, 764.955 184.325, 764.638 183.500 C 764.282 182.573, 762.762 182, 760.654 182 C 758.779 182, 756.685 181.325, 756 180.500 C 755.315 179.675, 753.965 179, 753 179 C 752.035 179, 750.685 178.325, 750 177.500 C 749.315 176.675, 747.487 176, 745.937 176 C 744.386 176, 742.840 175.550, 742.500 175 C 742.160 174.450, 741.064 174, 740.063 174 C 739.063 174, 737.685 173.325, 737 172.500 C 736.315 171.675, 734.290 171, 732.500 171 C 730.710 171, 728.685 170.325, 728 169.500 C 727.315 168.675, 725.515 168, 724 168 C 722.485 168, 720.685 167.325, 720 166.500 C 719.315 165.675, 717.937 165, 716.937 165 C 715.936 165, 714.840 164.550, 714.500 164 C 714.160 163.450, 712.319 163, 710.410 163 C 708.246 163, 706.720 162.435, 706.362 161.500 C 706.045 160.675, 704.822 159.981, 703.643 159.958 C 702.464 159.934, 700.396 158.584, 699.047 156.958 C 697.698 155.331, 695.855 154, 694.952 154 C 692.881 154, 690 150.882, 690 148.640 C 690 147.703, 689.325 146.678, 688.500 146.362 C 686.444 145.573, 686.444 138.150, 688.500 137.362 C 689.325 137.045, 690 135.779, 690 134.548 C 690 132.037, 692.850 129, 695.206 129 C 696.058 129, 697.315 128.325, 698 127.500 C 698.685 126.675, 700.738 126, 702.563 126 C 704.389 126, 706.160 125.550, 706.500 125 C 707.306 123.695, 716 123.695, 716 125 C 716 125.562, 718.793 126, 722.378 126 C 726.827 126, 729.132 126.454, 730 127.500 C 730.685 128.325, 732.717 129, 734.515 129 C 736.500 129, 738.012 129.590, 738.362 130.500 C 738.678 131.325, 739.796 132, 740.846 132 C 741.896 132, 743.315 132.675, 744 133.500 C 744.685 134.325, 746.063 135, 747.063 135 C 748.064 135, 749.160 135.450, 749.500 136 C 749.840 136.550, 751.006 137, 752.090 137 C 753.175 137, 754.322 137.675, 754.638 138.500 C 755.010 139.468, 756.557 140, 759 140 C 761.443 140, 762.990 140.532, 763.362 141.500 C 763.678 142.325, 764.796 143, 765.846 143 C 766.896 143, 768.315 143.675, 769 144.500 C 770.798 146.666, 790.202 146.666, 792 144.500 C 792.685 143.675, 794.035 143, 795 143 C 795.965 143, 797.315 142.325, 798 141.500 C 798.685 140.675, 799.977 139.992, 800.872 139.983 C 802.853 139.962, 807 135.766, 807 133.783 C 807 132.994, 808.125 131.292, 809.500 130 C 811.204 128.399, 812 126.582, 812 124.294 C 812 122.233, 812.579 120.715, 813.500 120.362 C 815.678 119.526, 815.678 100.808, 813.500 99 C 812.675 98.315, 812 96.965, 812 96 C 812 95.035, 811.325 93.685, 810.500 93 C 809.675 92.315, 809 91.230, 809 90.588 C 809 88.689, 790.932 71, 788.993 71 C 788.014 71, 786.955 70.325, 786.638 69.500 C 786.322 68.675, 785.204 68, 784.154 68 C 783.104 68, 781.685 67.325, 781 66.500 C 780.315 65.675, 778.937 65, 777.937 65 C 776.936 65, 775.840 64.550, 775.500 64 C 775.160 63.450, 773.319 63, 771.410 63 C 769.246 63, 767.720 62.435, 767.362 61.500 C 767.012 60.590, 765.500 60, 763.515 60 C 761.717 60, 759.685 59.325, 759 58.500 C 758.235 57.578, 756.041 57, 753.306 57 C 750.685 57, 748.241 56.384, 747.357 55.500 C 746.263 54.406, 743.594 54, 737.488 54 C 732.884 54, 728.840 53.550, 728.500 53 C 727.671 51.659, 702 51.659, 702 53 C 702 53.592, 698.374 54, 693.122 54 C 686.451 54, 683.935 54.373, 683 55.500 C 682.315 56.325, 680.221 57, 678.346 57 C 676.238 57, 674.718 57.573, 674.362 58.500 C 674.012 59.410, 672.500 60, 670.515 60 C 668.717 60, 666.685 60.675, 666 61.500 C 665.315 62.325, 663.937 63, 662.937 63 C 661.936 63, 660.840 63.450, 660.500 64 C 660.160 64.550, 659.064 65, 658.063 65 C 657.063 65, 655.685 65.675, 655 66.500 C 654.315 67.325, 652.933 68, 651.927 68 C 650.922 68, 649.740 68.625, 649.300 69.389 C 648.860 70.152, 647.744 70.940, 646.819 71.139 C 644.219 71.698, 621 94.932, 621 96.975 C 621 97.971, 620.325 99.045, 619.500 99.362 C 618.675 99.678, 618 100.825, 618 101.910 C 618 102.994, 617.550 104.160, 617 104.500 C 616.450 104.840, 616 105.936, 616 106.937 C 616 107.937, 615.325 109.315, 614.500 110 C 613.675 110.685, 613 112.717, 613 114.515 C 613 116.500, 612.410 118.012, 611.500 118.362 C 610.382 118.791, 610 120.574, 610 125.362 C 610 130.150, 609.618 131.933, 608.500 132.362 C 607.347 132.804, 607 134.710, 607 140.591 L 607 148.245 605.500 147 C 604.675 146.315, 604 144.936, 604 143.934 C 604 142.933, 601.525 139.772, 598.500 136.912 C 595.475 134.051, 593 130.966, 593 130.058 C 593 128.011, 585.964 121, 583.911 121 C 583.083 121, 580.648 119.200, 578.500 117 C 576.352 114.800, 573.870 113, 572.984 113 C 572.099 113, 570.081 111.650, 568.500 110 C 566.919 108.350, 564.858 107, 563.920 107 C 562.982 107, 561.955 106.325, 561.638 105.500 C 561.322 104.675, 560.261 103.986, 559.281 103.968 C 558.302 103.951, 556.626 103.276, 555.559 102.468 C 554.491 101.661, 552.380 101, 550.868 101 C 549.355 101, 547.840 100.550, 547.500 100 C 547.160 99.450, 545.382 99, 543.548 99 C 541.507 99, 539.991 98.418, 539.638 97.500 C 539.235 96.449, 537.595 96, 534.154 96 C 531.010 96, 528.797 95.461, 528 94.500 C 526.974 93.263, 523.434 93, 507.846 93 L 488.937 93 488.362 94.500 C 487.935 95.613, 486.167 96, 481.515 96 C 477.162 96, 474.864 96.458, 474 97.500 C 473.315 98.325, 471.487 99, 469.937 99 C 468.386 99, 466.840 99.450, 466.500 100 C 466.160 100.550, 465.064 101, 464.063 101 C 463.063 101, 461.685 101.675, 461 102.500 C 460.315 103.325, 458.994 104, 458.065 104 C 457.135 104, 455.081 105.350, 453.500 107 C 451.919 108.650, 449.931 110, 449.082 110 C 448.232 110, 444.700 112.966, 441.231 116.591 C 434.825 123.287, 432 124.024, 432 119 C 432 118.035, 431.325 116.685, 430.500 116 C 429.675 115.315, 429 114.075, 429 113.244 C 429 109.906, 415.577 99, 411.469 99 C 410.796 99, 409.685 98.325, 409 97.500 C 407.174 95.299, 383.483 95.299, 382.638 97.500 C 382.291 98.406, 380.764 99.006, 378.781 99.016 C 375.250 99.033, 360 112.585, 360 115.707 C 360 118.289, 357.511 116.443, 357.178 113.614 C 357.001 112.111, 356.213 110.635, 355.428 110.334 C 354.643 110.033, 354 108.757, 354 107.500 C 354 106.243, 353.325 104.955, 352.500 104.638 C 351.675 104.322, 351 102.972, 351 101.638 C 351 100.305, 350.325 98.955, 349.500 98.638 C 348.675 98.322, 348 97.175, 348 96.090 C 348 95.006, 347.550 93.840, 347 93.500 C 346.450 93.160, 346 91.994, 346 90.910 C 346 89.825, 345.325 88.678, 344.500 88.362 C 343.675 88.045, 343 86.794, 343 85.581 C 343 84.291, 341.756 82.456, 340 81.158 C 338.350 79.938, 337 78.052, 337 76.967 C 337 75.882, 335.200 73.369, 333 71.381 C 330.800 69.393, 329 67.026, 329 66.120 C 329 64.045, 303.015 38, 300.945 38 C 300.104 38, 297.429 35.975, 295 33.500 C 292.571 31.025, 289.810 29, 288.864 29 C 287.919 29, 286.260 27.875, 285.179 26.500 C 284.097 25.125, 282.313 24, 281.213 24 C 280.114 24, 278.955 23.325, 278.638 22.500 C 278.322 21.675, 277.204 21, 276.154 21 C 275.104 21, 273.685 20.325, 273 19.500 C 272.315 18.675, 270.965 18, 270 18 C 269.035 18, 267.685 17.325, 267 16.500 C 266.315 15.675, 265.286 15, 264.714 15 C 262.940 15, 256 11.661, 256 10.808 C 256 10.363, 254.480 10, 252.622 10 C 250.765 10, 248.685 9.325, 248 8.500 C 247.315 7.675, 245.290 7, 243.500 7 C 241.710 7, 239.685 6.325, 239 5.500 C 238.315 4.675, 236.608 4, 235.206 4 C 233.804 4, 231.791 3.216, 230.732 2.258 L 228.807 0.516 190.154 0.392 C 168.894 0.324, 148.950 0.454, 145.833 0.682 M 167.362 77.500 C 166.961 78.543, 165.333 79, 162.015 79 C 158.995 79, 156.788 79.550, 156 80.500 C 155.315 81.325, 153.235 82, 151.378 82 C 149.520 82, 148 82.363, 148 82.808 C 148 83.644, 141.076 87, 139.351 87 C 138.814 87, 137.081 88.350, 135.500 90 C 133.919 91.650, 131.914 93, 131.045 93 C 129 93, 109 113.043, 109 115.093 C 109 115.950, 107.875 117.708, 106.500 119 C 105.125 120.292, 104 122.115, 104 123.052 C 104 123.989, 103.325 125.315, 102.500 126 C 101.675 126.685, 101 128.035, 101 129 C 101 129.965, 100.325 131.315, 99.500 132 C 98.675 132.685, 98 134.090, 98 135.122 C 98 136.155, 97.550 137, 97 137 C 96.450 137, 96 138.520, 96 140.378 C 96 142.235, 95.325 144.315, 94.500 145 C 93.539 145.797, 93 148.010, 93 151.154 C 93 154.595, 92.551 156.235, 91.500 156.638 C 90.448 157.042, 90 158.684, 90 162.138 C 90 165.593, 89.552 167.235, 88.500 167.638 L 87 168.214 87 194.500 L 87 220.786 88.500 221.362 C 89.618 221.791, 90 223.574, 90 228.362 C 90 233.150, 90.382 234.933, 91.500 235.362 C 92.427 235.718, 93 237.238, 93 239.346 C 93 241.221, 93.675 243.315, 94.500 244 C 95.325 244.685, 96 246.765, 96 248.622 C 96 250.480, 96.450 252, 97 252 C 97.550 252, 98 252.845, 98 253.878 C 98 254.910, 98.675 256.315, 99.500 257 C 100.325 257.685, 101 259.035, 101 260 C 101 260.965, 101.675 262.315, 102.500 263 C 103.325 263.685, 104 265.104, 104 266.154 C 104 267.204, 104.675 268.322, 105.500 268.638 C 106.325 268.955, 107 270.217, 107 271.443 C 107 272.778, 108.604 275.112, 111 277.263 C 113.200 279.238, 115 281.596, 115 282.504 C 115 284.496, 120.297 290, 122.215 290 C 122.968 290, 125.571 292.025, 128 294.500 C 130.429 296.975, 132.974 299, 133.655 299 C 134.337 299, 137.010 300.125, 139.596 301.500 C 142.182 302.875, 144.920 304, 145.680 304 C 146.441 304, 147.322 304.675, 147.638 305.500 C 147.955 306.325, 149.243 307, 150.500 307 C 151.757 307, 153.045 307.675, 153.362 308.500 C 153.765 309.551, 155.405 310, 158.846 310 C 161.990 310, 164.203 310.539, 165 311.500 C 166.026 312.736, 169.549 313, 185 313 C 200.451 313, 203.974 312.736, 205 311.500 C 205.750 310.597, 207.938 310, 210.500 310 C 213.062 310, 215.250 309.403, 216 308.500 C 216.685 307.675, 218.765 307, 220.622 307 C 222.480 307, 224 306.594, 224 306.098 C 224 305.602, 225.328 304.733, 226.950 304.167 C 228.573 303.601, 230.698 302.207, 231.673 301.069 C 232.647 299.931, 234.160 299, 235.035 299 C 235.910 299, 237.919 297.650, 239.500 296 C 241.081 294.350, 243.064 293, 243.908 293 C 245.949 293, 257 282, 257 279.968 C 257 279.092, 258.350 277.081, 260 275.500 C 261.650 273.919, 263.008 271.923, 263.017 271.063 C 263.027 270.203, 264.152 268.440, 265.517 267.145 C 266.883 265.850, 268 263.923, 268 262.864 C 268 261.804, 268.675 260.678, 269.500 260.362 C 270.410 260.012, 271 258.500, 271 256.515 C 271 254.717, 271.675 252.685, 272.500 252 C 273.325 251.315, 274 249.965, 274 249 C 274 248.035, 274.671 246.688, 275.490 246.008 C 276.393 245.259, 276.759 243.887, 276.418 242.529 C 276.078 241.175, 276.478 239.665, 277.428 238.715 C 278.514 237.629, 279 235.256, 279 231.040 C 279 226.538, 279.393 224.786, 280.500 224.362 L 282 223.786 282 194.822 L 282 165.857 280.433 164.291 C 279.434 163.291, 278.966 161.348, 279.142 158.921 C 279.324 156.389, 278.829 154.468, 277.660 153.176 C 276.486 151.879, 276.110 150.412, 276.526 148.753 C 276.965 147.003, 276.684 146.093, 275.574 145.667 C 274.568 145.281, 274 143.833, 274 141.654 C 274 139.779, 273.325 137.685, 272.500 137 C 271.675 136.315, 271 134.896, 271 133.846 C 271 132.796, 270.325 131.678, 269.500 131.362 C 268.675 131.045, 268 129.709, 268 128.393 C 268 127.077, 267.637 126, 267.192 126 C 266.334 126, 263 119.055, 263 117.266 C 263 115.534, 236.670 90, 234.884 90 C 233.983 90, 232.685 89.325, 232 88.500 C 231.315 87.675, 229.910 87, 228.878 87 C 227.845 87, 227 86.550, 227 86 C 227 85.450, 226.155 85, 225.122 85 C 224.090 85, 222.685 84.325, 222 83.500 C 221.315 82.675, 219.221 82, 217.346 82 C 215.238 82, 213.718 81.427, 213.362 80.500 C 212.961 79.457, 211.333 79, 208.015 79 C 204.995 79, 202.788 78.450, 202 77.500 C 200.986 76.278, 197.712 76, 184.346 76 C 170.683 76, 167.841 76.251, 167.362 77.500 M 481 169.500 C 480.315 170.325, 478.235 171, 476.378 171 C 474.520 171, 473 171.450, 473 172 C 473 172.550, 472.155 173, 471.122 173 C 470.090 173, 468.685 173.675, 468 174.500 C 467.315 175.325, 466.010 176, 465.099 176 C 463.066 176, 451.007 187.983, 450.983 190.027 C 450.973 190.837, 449.848 192.560, 448.483 193.855 C 447.117 195.150, 446 197.077, 446 198.136 C 446 199.196, 445.325 200.322, 444.500 200.638 C 443.590 200.988, 443 202.500, 443 204.485 C 443 206.283, 442.325 208.315, 441.500 209 C 440.675 209.685, 440 211.779, 440 213.654 C 440 215.762, 439.427 217.282, 438.500 217.638 C 437.320 218.091, 437 220.140, 437 227.247 C 437 234.665, 436.687 236.523, 435.250 237.640 L 433.500 239 435.250 240.360 C 436.713 241.497, 437 243.390, 437 251.892 C 437 260.010, 437.303 262.179, 438.500 262.638 C 439.572 263.050, 440 264.724, 440 268.500 C 440 272.276, 440.428 273.950, 441.500 274.362 C 442.325 274.678, 443 275.796, 443 276.846 C 443 277.896, 443.675 279.315, 444.500 280 C 445.325 280.685, 446 282.090, 446 283.122 C 446 284.155, 446.450 285, 447 285 C 447.550 285, 448 286.139, 448 287.531 C 448 288.924, 448.675 290.322, 449.500 290.638 C 450.325 290.955, 451 292.066, 451 293.107 C 451 295.233, 462.275 307, 464.313 307 C 465.035 307, 466.919 308.350, 468.500 310 C 470.540 312.130, 472.318 313, 474.628 313 C 476.418 313, 478.160 313.450, 478.500 314 C 478.869 314.597, 485.324 315, 494.500 315 C 503.676 315, 510.131 314.597, 510.500 314 C 510.840 313.450, 511.936 313, 512.937 313 C 513.937 313, 515.315 312.325, 516 311.500 C 516.685 310.675, 517.885 310, 518.667 310 C 520.962 310, 538 292.619, 538 290.278 C 538 289.143, 538.722 287.937, 539.604 287.599 C 540.486 287.260, 540.963 286.345, 540.663 285.565 C 540.364 284.785, 540.767 283.608, 541.559 282.951 C 542.352 282.293, 543 280.965, 543 280 C 543 279.035, 543.675 277.685, 544.500 277 C 545.325 276.315, 546 274.221, 546 272.346 C 546 270.238, 546.573 268.718, 547.500 268.362 C 548.552 267.958, 549 266.316, 549 262.862 C 549 259.362, 549.443 257.767, 550.531 257.350 C 552.680 256.525, 552.568 230.716, 550.408 228.923 C 549.471 228.146, 549 225.655, 549 221.485 C 549 216.833, 548.613 215.065, 547.500 214.638 C 546.555 214.276, 546 212.744, 546 210.500 C 546 208.256, 545.445 206.724, 544.500 206.362 C 543.675 206.045, 543 204.747, 543 203.476 C 543 202.206, 542.525 201.008, 541.946 200.815 C 541.366 200.622, 540.772 199.653, 540.627 198.662 C 540.481 197.672, 539.156 195.583, 537.681 194.020 C 536.207 192.458, 534.990 190.577, 534.978 189.840 C 534.944 187.723, 523.184 176, 521.096 176 C 520.061 176, 518.955 175.325, 518.638 174.500 C 518.322 173.675, 516.924 173, 515.531 173 C 514.139 173, 513 172.550, 513 172 C 513 171.450, 511.480 171, 509.622 171 C 507.765 171, 505.685 170.325, 505 169.500 C 504.035 168.337, 501.340 168, 493 168 C 484.660 168, 481.965 168.337, 481 169.500 M 626 193.849 C 626 194.560, 626.675 195.818, 627.500 196.643 C 628.371 197.513, 629 199.956, 629 202.464 C 629 205.383, 629.487 206.973, 630.500 207.362 C 631.700 207.822, 632 210.016, 632 218.346 C 632 226.532, 632.331 229.030, 633.552 230.043 C 634.805 231.083, 635.068 233.462, 634.922 242.415 L 634.742 253.500 642.539 254 C 647.506 254.319, 650.487 254.954, 650.751 255.750 C 650.980 256.438, 652.649 257, 654.461 257 C 656.273 257, 658.315 257.675, 659 258.500 C 659.685 259.325, 661.035 260, 662 260 C 662.965 260, 664.315 260.675, 665 261.500 C 665.685 262.325, 667.090 263, 668.122 263 C 669.155 263, 670 263.450, 670 264 C 670 264.550, 670.816 265, 671.813 265 C 672.810 265, 674.919 266.350, 676.500 268 C 678.081 269.650, 680.135 271, 681.065 271 C 681.994 271, 683.315 271.675, 684 272.500 C 684.685 273.325, 686.738 274, 688.563 274 C 690.389 274, 692.160 274.450, 692.500 275 C 692.840 275.550, 695.061 276, 697.437 276 C 700.055 276, 702.245 276.590, 703 277.500 C 703.968 278.666, 706.681 279, 715.194 279 C 723.593 279, 726.492 278.651, 727.643 277.500 C 728.468 276.675, 730.327 276, 731.774 276 C 734.751 276, 741.120 270.477, 740.377 268.539 C 740.119 267.869, 740.604 266.743, 741.454 266.038 C 742.333 265.309, 743 263.177, 743 261.096 L 743 257.437 737.250 251.823 C 734.087 248.735, 730.487 245.907, 729.250 245.537 C 728.013 245.168, 727 244.446, 727 243.933 C 727 243.420, 725.923 243, 724.607 243 C 723.291 243, 721.955 242.325, 721.638 241.500 C 721.322 240.675, 719.972 240, 718.638 240 C 717.305 240, 715.955 239.325, 715.638 238.500 C 715.280 237.565, 713.754 237, 711.590 237 C 709.681 237, 707.840 236.550, 707.500 236 C 707.160 235.450, 705.614 235, 704.063 235 C 702.513 235, 700.685 234.325, 700 233.500 C 699.315 232.675, 697.965 232, 697 232 C 696.035 232, 694.685 231.325, 694 230.500 C 693.315 229.675, 691.221 229, 689.346 229 C 687.238 229, 685.718 228.427, 685.362 227.500 C 685.009 226.582, 683.493 226, 681.452 226 C 679.618 226, 677.840 225.550, 677.500 225 C 677.160 224.450, 676.064 224, 675.063 224 C 674.063 224, 672.685 223.325, 672 222.500 C 671.315 221.675, 669.965 221, 669 221 C 668.035 221, 666.685 220.325, 666 219.500 C 665.315 218.675, 663.896 218, 662.846 218 C 661.796 218, 660.678 217.325, 660.362 216.500 C 660.045 215.675, 658.757 215, 657.500 215 C 656.243 215, 654.955 214.325, 654.638 213.500 C 654.322 212.675, 653.227 212, 652.206 212 C 651.184 212, 649.292 210.875, 648 209.500 C 646.708 208.125, 644.921 207, 644.029 207 C 643.136 207, 640.648 205.200, 638.500 203 C 636.352 200.800, 633.985 199, 633.241 199 C 632.496 199, 630.563 197.550, 628.944 195.777 C 627.325 194.005, 626 193.137, 626 193.849 M 849.362 308.500 C 849.012 309.410, 847.500 310, 845.515 310 C 843.717 310, 841.685 310.675, 841 311.500 C 840.315 312.325, 839.220 313, 838.565 313 C 834.387 313, 824 321.004, 824 324.223 C 824 324.995, 822.650 326.919, 821 328.500 C 819.350 330.081, 818 331.997, 818 332.759 C 818 333.520, 817.325 334.818, 816.500 335.643 C 815.306 336.836, 815 340.066, 815 351.449 C 815 362.946, 815.295 366, 816.500 367 C 817.325 367.685, 818 369.035, 818 370 C 818 370.965, 818.675 372.315, 819.500 373 C 820.325 373.685, 821 374.905, 821 375.713 C 821 377.491, 830.665 387, 832.471 387 C 833.177 387, 834.315 387.675, 835 388.500 C 835.685 389.325, 837.035 390, 838 390 C 838.965 390, 840.315 390.675, 841 391.500 C 841.685 392.325, 843.035 393, 844 393 C 844.965 393, 846.315 393.675, 847 394.500 C 847.958 395.655, 850.604 396, 858.500 396 C 866.396 396, 869.042 395.655, 870 394.500 C 870.685 393.675, 872.779 393, 874.654 393 C 876.762 393, 878.282 392.427, 878.638 391.500 C 878.955 390.675, 879.953 389.994, 880.857 389.988 C 883.099 389.971, 896 377.189, 896 374.985 C 896 374.011, 896.667 372.958, 897.483 372.645 C 898.299 372.332, 898.718 371.429, 898.415 370.639 C 898.112 369.849, 898.344 368.905, 898.932 368.542 C 900.396 367.637, 900.396 335.363, 898.932 334.458 C 898.344 334.095, 898.093 333.201, 898.372 332.472 C 898.652 331.743, 898.233 330.608, 897.441 329.951 C 896.648 329.293, 896 328.106, 896 327.313 C 896 325.282, 884.975 315, 882.798 315 C 881.809 315, 881 314.550, 881 314 C 881 313.450, 880.155 313, 879.122 313 C 878.090 313, 876.685 312.325, 876 311.500 C 875.315 310.675, 873.290 310, 871.500 310 C 869.710 310, 867.685 309.325, 867 308.500 C 866.085 307.398, 863.656 307, 857.846 307 C 851.738 307, 849.806 307.342, 849.362 308.500" stroke="none" fill="#26b052" fill-rule="evenodd"/><path d="M 145.833 0.682 C 142.546 0.921, 139.660 1.705, 138.961 2.547 C 138.206 3.457, 135.918 4, 132.846 4 C 129.405 4, 127.765 4.449, 127.362 5.500 C 127.012 6.410, 125.500 7, 123.515 7 C 121.717 7, 119.685 7.675, 119 8.500 C 118.315 9.325, 116.965 10, 116 10 C 115.035 10, 113.685 10.675, 113 11.500 C 112.315 12.325, 110.235 13, 108.378 13 C 106.520 13, 105 13.450, 105 14 C 105 14.550, 104.155 15, 103.122 15 C 102.090 15, 100.685 15.675, 100 16.500 C 99.315 17.325, 97.965 18, 97 18 C 96.035 18, 94.685 18.675, 94 19.500 C 93.315 20.325, 91.994 21, 91.065 21 C 90.135 21, 88.081 22.350, 86.500 24 C 84.919 25.650, 82.974 27, 82.178 27 C 81.381 27, 79.687 28.125, 78.412 29.500 C 77.138 30.875, 75.456 32, 74.675 32 C 72.920 32, 38 66.628, 38 68.369 C 38 69.060, 36.650 70.919, 35 72.500 C 33.350 74.081, 32 76.112, 32 77.013 C 32 77.914, 30.875 79.708, 29.500 81 C 28.125 82.292, 27 84.184, 27 85.206 C 27 86.227, 26.325 87.322, 25.500 87.638 C 24.675 87.955, 24 89.277, 24 90.577 C 24 92.043, 22.861 93.782, 21 95.158 C 18.736 96.832, 18 98.174, 18 100.629 C 18 102.418, 17.550 104.160, 17 104.500 C 16.450 104.840, 16 106.006, 16 107.090 C 16 108.175, 15.325 109.322, 14.500 109.638 C 13.675 109.955, 13 111.305, 13 112.638 C 13 113.972, 12.325 115.322, 11.500 115.638 C 10.532 116.010, 10 117.557, 10 120 C 10 122.443, 9.468 123.990, 8.500 124.362 C 7.448 124.765, 7 126.407, 7 129.862 C 7 133.316, 6.552 134.958, 5.500 135.362 C 4.449 135.765, 4 137.405, 4 140.846 C 4 144.134, 3.470 146.195, 2.394 147.088 C 1.168 148.106, 0.892 149.684, 1.229 153.753 C 1.473 156.686, 1.295 159.317, 0.836 159.601 C -0.257 160.277, -0.257 228.723, 0.836 229.399 C 1.295 229.683, 1.473 232.314, 1.229 235.247 C 0.892 239.316, 1.168 240.894, 2.394 241.912 C 3.414 242.758, 4 244.817, 4 247.551 C 4 250.045, 4.631 252.488, 5.500 253.357 C 6.399 254.256, 7 256.702, 7 259.460 C 7 262.629, 7.467 264.242, 8.500 264.638 C 9.468 265.010, 10 266.557, 10 269 C 10 271.443, 10.532 272.990, 11.500 273.362 C 12.325 273.678, 13 274.796, 13 275.846 C 13 276.896, 13.675 278.315, 14.500 279 C 15.325 279.685, 16 281.063, 16 282.063 C 16 283.064, 16.450 284.160, 17 284.500 C 17.550 284.840, 18 286.006, 18 287.090 C 18 288.175, 18.675 289.322, 19.500 289.638 C 20.325 289.955, 21 291.243, 21 292.500 C 21 293.757, 21.675 295.045, 22.500 295.362 C 23.325 295.678, 24 297.028, 24 298.362 C 24 299.695, 24.675 301.045, 25.500 301.362 C 26.325 301.678, 27 302.773, 27 303.794 C 27 304.816, 28.125 306.708, 29.500 308 C 30.875 309.292, 32 311.079, 32 311.971 C 32 312.864, 33.331 314.698, 34.958 316.047 C 36.584 317.396, 37.934 319.220, 37.958 320.100 C 38.010 322.066, 72.318 356.354, 74.750 356.871 C 75.709 357.075, 77.487 358.313, 78.700 359.621 C 79.912 360.929, 81.526 362, 82.286 362 C 83.045 362, 84.979 363.338, 86.583 364.972 C 88.188 366.607, 90.232 367.957, 91.128 367.972 C 92.023 367.988, 93.315 368.675, 94 369.500 C 94.685 370.325, 95.714 371, 96.286 371 C 98.060 371, 105 374.339, 105 375.192 C 105 375.637, 106.520 376, 108.378 376 C 110.235 376, 112.315 376.675, 113 377.500 C 113.685 378.325, 115.035 379, 116 379 C 116.965 379, 118.315 379.675, 119 380.500 C 119.685 381.325, 121.572 382, 123.194 382 C 124.816 382, 126.818 382.675, 127.643 383.500 C 128.518 384.376, 130.962 385, 133.512 385 C 135.916 385, 138.160 385.450, 138.500 386 C 138.840 386.550, 141.736 387, 144.937 387 C 148.889 387, 151.154 387.481, 152 388.500 L 153.245 390 186.515 390 L 219.786 390 220.362 388.500 C 220.792 387.379, 222.585 387, 227.469 387 C 231.156 387, 234 386.565, 234 386 C 234 385.450, 235.520 385, 237.378 385 C 239.235 385, 241.315 384.325, 242 383.500 C 242.685 382.675, 244.779 382, 246.654 382 C 248.762 382, 250.282 381.427, 250.638 380.500 C 250.988 379.590, 252.500 379, 254.485 379 C 256.283 379, 258.315 378.325, 259 377.500 C 259.685 376.675, 261.035 376, 262 376 C 262.965 376, 264.315 375.325, 265 374.500 C 265.685 373.675, 266.714 373, 267.286 373 C 269.060 373, 276 369.661, 276 368.808 C 276 368.363, 276.845 368, 277.878 368 C 278.910 368, 280.315 367.325, 281 366.500 C 281.685 365.675, 283.011 365, 283.948 365 C 284.885 365, 286.708 363.875, 288 362.500 C 289.292 361.125, 291.072 360, 291.956 360 C 292.839 360, 296.234 357.300, 299.500 354 C 302.766 350.700, 305.999 348, 306.686 348 C 308.382 348, 323 333.469, 323 331.783 C 323 331.043, 325.700 327.766, 329 324.500 C 332.300 321.234, 335 317.794, 335 316.854 C 335 315.914, 336.125 314.260, 337.500 313.179 C 338.875 312.097, 340 310.339, 340 309.271 C 340 308.204, 341.350 306.128, 343 304.658 C 344.650 303.187, 346 301.088, 346 299.992 C 346 298.897, 346.450 298, 347 298 C 347.550 298, 348 296.923, 348 295.607 C 348 294.291, 348.675 292.955, 349.500 292.638 C 350.325 292.322, 351 291.204, 351 290.154 C 351 289.104, 351.675 287.685, 352.500 287 L 354 285.755 354 378.909 L 354 472.063 355.500 472.638 C 356.325 472.955, 357 474.305, 357 475.638 C 357 476.972, 357.675 478.322, 358.500 478.638 C 359.325 478.955, 360 480.028, 360 481.024 C 360 483.056, 372.230 495.298, 374.826 495.866 C 375.747 496.067, 376.798 496.705, 377.163 497.284 C 379.302 500.679, 409.726 500.630, 411.872 497.228 C 412.217 496.680, 413.260 496.067, 414.189 495.866 C 415.118 495.665, 419.505 491.962, 423.939 487.638 L 432 479.776 432 476.495 C 432 474.485, 432.587 472.989, 433.517 472.632 L 435.034 472.050 434.982 420.287 C 434.927 366.033, 434.957 365.692, 439.342 370.424 C 440.655 371.841, 442.381 373, 443.178 373 C 443.974 373, 445.919 374.350, 447.500 376 C 449.081 377.650, 451.135 379, 452.065 379 C 452.994 379, 454.315 379.675, 455 380.500 C 455.685 381.325, 457.572 382, 459.194 382 C 460.816 382, 462.818 382.675, 463.643 383.500 C 464.468 384.325, 466.434 385, 468.012 385 C 469.591 385, 471.160 385.450, 471.500 386 C 471.840 386.550, 473.681 387, 475.590 387 C 477.754 387, 479.280 387.565, 479.638 388.500 L 480.214 390 505.178 390 C 526.036 390, 530.390 389.753, 531.643 388.500 C 532.468 387.675, 534.434 387, 536.012 387 C 537.591 387, 539.160 386.550, 539.500 386 C 539.840 385.450, 541.409 385, 542.988 385 C 544.566 385, 546.532 384.325, 547.357 383.500 C 548.182 382.675, 550.184 382, 551.806 382 C 553.428 382, 555.315 381.325, 556 380.500 C 556.685 379.675, 558.006 379, 558.935 379 C 559.865 379, 561.919 377.650, 563.500 376 C 565.081 374.350, 567.157 373, 568.115 373 C 569.072 373, 570.740 371.875, 571.821 370.500 C 572.903 369.125, 574.468 368, 575.300 368 C 577.177 368, 604 341.370, 604 339.507 C 604 338.763, 605.380 336.774, 607.066 335.088 C 608.752 333.402, 609.893 331.636, 609.601 331.164 C 609.310 330.692, 610.405 329.028, 612.036 327.466 C 613.666 325.904, 615 323.740, 615 322.658 L 615 320.690 616.829 322.345 C 617.835 323.255, 619.137 324, 619.724 324 C 620.310 324, 621.850 325.117, 623.145 326.483 C 624.440 327.848, 626.232 328.973, 627.128 328.983 C 628.023 328.992, 629.315 329.675, 630 330.500 C 630.685 331.325, 632.035 332, 633 332 C 633.965 332, 635.315 332.675, 636 333.500 C 636.685 334.325, 638.090 335, 639.122 335 C 640.155 335, 641 335.450, 641 336 C 641 336.550, 641.845 337, 642.878 337 C 643.910 337, 645.315 337.675, 646 338.500 C 646.685 339.325, 648.710 340, 650.500 340 C 652.290 340, 654.315 340.675, 655 341.500 C 655.685 342.325, 657.572 343, 659.194 343 C 660.816 343, 662.818 343.675, 663.643 344.500 C 664.503 345.360, 666.946 346, 669.371 346 C 671.697 346, 674.119 346.519, 674.753 347.153 C 675.450 347.850, 678.698 348.224, 682.964 348.100 C 688.554 347.937, 690.146 348.217, 690.618 349.447 L 691.214 351 709.485 351 C 724.505 351, 727.977 350.733, 729 349.500 C 729.901 348.415, 732.285 348, 737.622 348 C 741.874 348, 745 347.576, 745 347 C 745 346.450, 747.195 346, 749.878 346 C 752.993 346, 755.205 345.458, 756 344.500 C 756.685 343.675, 758.035 343, 759 343 C 759.965 343, 761.315 342.325, 762 341.500 C 762.685 340.675, 764.717 340, 766.515 340 C 768.500 340, 770.012 339.410, 770.362 338.500 C 770.678 337.675, 771.773 337, 772.794 337 C 773.816 337, 775.708 335.875, 777 334.500 C 778.292 333.125, 780.086 332, 780.987 332 C 781.888 332, 783.919 330.650, 785.500 329 C 787.081 327.350, 789.044 326, 789.863 326 C 791.622 326, 804 313.710, 804 311.964 C 804 311.304, 805.360 309.215, 807.022 307.322 C 808.684 305.429, 809.808 303.498, 809.519 303.031 C 809.231 302.564, 810.346 301.045, 811.997 299.656 C 814.268 297.745, 815 296.286, 815 293.672 C 815 291.521, 815.567 289.996, 816.500 289.638 C 817.427 289.282, 818 287.762, 818 285.654 C 818 283.779, 818.657 281.699, 819.461 281.032 C 820.471 280.194, 821.011 277.319, 821.211 271.725 L 821.500 263.630 827.585 269.815 C 830.931 273.217, 834.364 276, 835.212 276 C 836.061 276, 837.315 276.675, 838 277.500 C 838.685 278.325, 840.035 279, 841 279 C 841.965 279, 843.315 279.675, 844 280.500 C 845.811 282.682, 868.189 282.682, 870 280.500 C 870.685 279.675, 872.779 279, 874.654 279 C 876.762 279, 878.282 278.427, 878.638 277.500 C 878.955 276.675, 879.970 276, 880.895 276 C 882.896 276, 896 263.485, 896 261.573 C 896 260.843, 896.675 259.685, 897.500 259 L 899 257.755 899 142.846 L 899 27.937 897.500 27.362 C 896.675 27.045, 896 25.966, 896 24.964 C 896 23.963, 895.325 22.468, 894.500 21.643 C 893.675 20.818, 893 19.533, 893 18.787 C 893 16.898, 882.790 7, 880.841 7 C 879.963 7, 878.685 6.325, 878 5.500 C 877.315 4.675, 875.515 4, 874 4 C 872.485 4, 870.685 3.325, 870 2.500 C 868.202 0.334, 848.798 0.334, 847 2.500 C 846.315 3.325, 844.221 4, 842.346 4 C 840.238 4, 838.718 4.573, 838.362 5.500 C 838.045 6.325, 837.047 7.010, 836.143 7.022 C 833.818 7.053, 821 19.660, 821 21.916 C 821 22.944, 820.325 24.045, 819.500 24.362 L 818 24.937 818 128.091 L 818 231.245 816.500 230 C 815.675 229.315, 815 227.965, 815 227 C 815 226.035, 814.325 224.685, 813.500 224 C 812.675 223.315, 812 222.122, 812 221.349 C 812 219.402, 791.865 199.010, 789.937 199.005 C 789.077 199.002, 787.081 197.650, 785.500 196 C 783.919 194.350, 781.888 193, 780.987 193 C 780.086 193, 778.292 191.875, 777 190.500 C 775.708 189.125, 773.885 188, 772.948 188 C 772.011 188, 770.685 187.325, 770 186.500 C 769.315 185.675, 767.958 185, 766.985 185 C 766.011 185, 764.955 184.325, 764.638 183.500 C 764.282 182.573, 762.762 182, 760.654 182 C 758.779 182, 756.685 181.325, 756 180.500 C 755.315 179.675, 753.965 179, 753 179 C 752.035 179, 750.685 178.325, 750 177.500 C 749.315 176.675, 747.487 176, 745.937 176 C 744.386 176, 742.840 175.550, 742.500 175 C 742.160 174.450, 741.064 174, 740.063 174 C 739.063 174, 737.685 173.325, 737 172.500 C 736.315 171.675, 734.290 171, 732.500 171 C 730.710 171, 728.685 170.325, 728 169.500 C 727.315 168.675, 725.515 168, 724 168 C 722.485 168, 720.685 167.325, 720 166.500 C 719.315 165.675, 717.937 165, 716.937 165 C 715.936 165, 714.840 164.550, 714.500 164 C 714.160 163.450, 712.319 163, 710.410 163 C 708.246 163, 706.720 162.435, 706.362 161.500 C 706.045 160.675, 704.822 159.981, 703.643 159.958 C 702.464 159.934, 700.396 158.584, 699.047 156.958 C 697.698 155.331, 695.855 154, 694.952 154 C 692.881 154, 690 150.882, 690 148.640 C 690 147.703, 689.325 146.678, 688.500 146.362 C 686.444 145.573, 686.444 138.150, 688.500 137.362 C 689.325 137.045, 690 135.779, 690 134.548 C 690 132.037, 692.850 129, 695.206 129 C 696.058 129, 697.315 128.325, 698 127.500 C 698.685 126.675, 700.738 126, 702.563 126 C 704.389 126, 706.160 125.550, 706.500 125 C 707.306 123.695, 716 123.695, 716 125 C 716 125.562, 718.793 126, 722.378 126 C 726.827 126, 729.132 126.454, 730 127.500 C 730.685 128.325, 732.717 129, 734.515 129 C 736.500 129, 738.012 129.590, 738.362 130.500 C 738.678 131.325, 739.796 132, 740.846 132 C 741.896 132, 743.315 132.675, 744 133.500 C 744.685 134.325, 746.063 135, 747.063 135 C 748.064 135, 749.160 135.450, 749.500 136 C 749.840 136.550, 751.006 137, 752.090 137 C 753.175 137, 754.322 137.675, 754.638 138.500 C 755.010 139.468, 756.557 140, 759 140 C 761.443 140, 762.990 140.532, 763.362 141.500 C 763.678 142.325, 764.796 143, 765.846 143 C 766.896 143, 768.315 143.675, 769 144.500 C 770.798 146.666, 790.202 146.666, 792 144.500 C 792.685 143.675, 794.035 143, 795 143 C 795.965 143, 797.315 142.325, 798 141.500 C 798.685 140.675, 799.977 139.992, 800.872 139.983 C 802.853 139.962, 807 135.766, 807 133.783 C 807 132.994, 808.125 131.292, 809.500 130 C 811.204 128.399, 812 126.582, 812 124.294 C 812 122.233, 812.579 120.715, 813.500 120.362 C 815.678 119.526, 815.678 100.808, 813.500 99 C 812.675 98.315, 812 96.965, 812 96 C 812 95.035, 811.325 93.685, 810.500 93 C 809.675 92.315, 809 91.230, 809 90.588 C 809 88.689, 790.932 71, 788.993 71 C 788.014 71, 786.955 70.325, 786.638 69.500 C 786.322 68.675, 785.204 68, 784.154 68 C 783.104 68, 781.685 67.325, 781 66.500 C 780.315 65.675, 778.937 65, 777.937 65 C 776.936 65, 775.840 64.550, 775.500 64 C 775.160 63.450, 773.319 63, 771.410 63 C 769.246 63, 767.720 62.435, 767.362 61.500 C 767.012 60.590, 765.500 60, 763.515 60 C 761.717 60, 759.685 59.325, 759 58.500 C 758.235 57.578, 756.041 57, 753.306 57 C 750.685 57, 748.241 56.384, 747.357 55.500 C 746.263 54.406, 743.594 54, 737.488 54 C 732.884 54, 728.840 53.550, 728.500 53 C 727.671 51.659, 702 51.659, 702 53 C 702 53.592, 698.374 54, 693.122 54 C 686.451 54, 683.935 54.373, 683 55.500 C 682.315 56.325, 680.221 57, 678.346 57 C 676.238 57, 674.718 57.573, 674.362 58.500 C 674.012 59.410, 672.500 60, 670.515 60 C 668.717 60, 666.685 60.675, 666 61.500 C 665.315 62.325, 663.937 63, 662.937 63 C 661.936 63, 660.840 63.450, 660.500 64 C 660.160 64.550, 659.064 65, 658.063 65 C 657.063 65, 655.685 65.675, 655 66.500 C 654.315 67.325, 652.933 68, 651.927 68 C 650.922 68, 649.740 68.625, 649.300 69.389 C 648.860 70.152, 647.744 70.940, 646.819 71.139 C 644.219 71.698, 621 94.932, 621 96.975 C 621 97.971, 620.325 99.045, 619.500 99.362 C 618.675 99.678, 618 100.825, 618 101.910 C 618 102.994, 617.550 104.160, 617 104.500 C 616.450 104.840, 616 105.936, 616 106.937 C 616 107.937, 615.325 109.315, 614.500 110 C 613.675 110.685, 613 112.717, 613 114.515 C 613 116.500, 612.410 118.012, 611.500 118.362 C 610.382 118.791, 610 120.574, 610 125.362 C 610 130.150, 609.618 131.933, 608.500 132.362 C 607.347 132.804, 607 134.710, 607 140.591 L 607 148.245 605.500 147 C 604.675 146.315, 604 144.936, 604 143.934 C 604 142.933, 601.525 139.772, 598.500 136.912 C 595.475 134.051, 593 130.966, 593 130.058 C 593 128.011, 585.964 121, 583.911 121 C 583.083 121, 580.648 119.200, 578.500 117 C 576.352 114.800, 573.870 113, 572.984 113 C 572.099 113, 570.081 111.650, 568.500 110 C 566.919 108.350, 564.858 107, 563.920 107 C 562.982 107, 561.955 106.325, 561.638 105.500 C 561.322 104.675, 560.261 103.986, 559.281 103.968 C 558.302 103.951, 556.626 103.276, 555.559 102.468 C 554.491 101.661, 552.380 101, 550.868 101 C 549.355 101, 547.840 100.550, 547.500 100 C 547.160 99.450, 545.382 99, 543.548 99 C 541.507 99, 539.991 98.418, 539.638 97.500 C 539.235 96.449, 537.595 96, 534.154 96 C 531.010 96, 528.797 95.461, 528 94.500 C 526.974 93.263, 523.434 93, 507.846 93 L 488.937 93 488.362 94.500 C 487.935 95.613, 486.167 96, 481.515 96 C 477.162 96, 474.864 96.458, 474 97.500 C 473.315 98.325, 471.487 99, 469.937 99 C 468.386 99, 466.840 99.450, 466.500 100 C 466.160 100.550, 465.064 101, 464.063 101 C 463.063 101, 461.685 101.675, 461 102.500 C 460.315 103.325, 458.994 104, 458.065 104 C 457.135 104, 455.081 105.350, 453.500 107 C 451.919 108.650, 449.931 110, 449.082 110 C 448.232 110, 444.700 112.966, 441.231 116.591 C 434.825 123.287, 432 124.024, 432 119 C 432 118.035, 431.325 116.685, 430.500 116 C 429.675 115.315, 429 114.075, 429 113.244 C 429 109.906, 415.577 99, 411.469 99 C 410.796 99, 409.685 98.325, 409 97.500 C 407.174 95.299, 383.483 95.299, 382.638 97.500 C 382.291 98.406, 380.764 99.006, 378.781 99.016 C 375.250 99.033, 360 112.585, 360 115.707 C 360 118.289, 357.511 116.443, 357.178 113.614 C 357.001 112.111, 356.213 110.635, 355.428 110.334 C 354.643 110.033, 354 108.757, 354 107.500 C 354 106.243, 353.325 104.955, 352.500 104.638 C 351.675 104.322, 351 102.972, 351 101.638 C 351 100.305, 350.325 98.955, 349.500 98.638 C 348.675 98.322, 348 97.175, 348 96.090 C 348 95.006, 347.550 93.840, 347 93.500 C 346.450 93.160, 346 91.994, 346 90.910 C 346 89.825, 345.325 88.678, 344.500 88.362 C 343.675 88.045, 343 86.794, 343 85.581 C 343 84.291, 341.756 82.456, 340 81.158 C 338.350 79.938, 337 78.052, 337 76.967 C 337 75.882, 335.200 73.369, 333 71.381 C 330.800 69.393, 329 67.026, 329 66.120 C 329 64.045, 303.015 38, 300.945 38 C 300.104 38, 297.429 35.975, 295 33.500 C 292.571 31.025, 289.810 29, 288.864 29 C 287.919 29, 286.260 27.875, 285.179 26.500 C 284.097 25.125, 282.313 24, 281.213 24 C 280.114 24, 278.955 23.325, 278.638 22.500 C 278.322 21.675, 277.204 21, 276.154 21 C 275.104 21, 273.685 20.325, 273 19.500 C 272.315 18.675, 270.965 18, 270 18 C 269.035 18, 267.685 17.325, 267 16.500 C 266.315 15.675, 265.286 15, 264.714 15 C 262.940 15, 256 11.661, 256 10.808 C 256 10.363, 254.480 10, 252.622 10 C 250.765 10, 248.685 9.325, 248 8.500 C 247.315 7.675, 245.290 7, 243.500 7 C 241.710 7, 239.685 6.325, 239 5.500 C 238.315 4.675, 236.608 4, 235.206 4 C 233.804 4, 231.791 3.216, 230.732 2.258 L 228.807 0.516 190.154 0.392 C 168.894 0.324, 148.950 0.454, 145.833 0.682 M 167.362 77.500 C 166.961 78.543, 165.333 79, 162.015 79 C 158.995 79, 156.788 79.550, 156 80.500 C 155.315 81.325, 153.235 82, 151.378 82 C 149.520 82, 148 82.363, 148 82.808 C 148 83.644, 141.076 87, 139.351 87 C 138.814 87, 137.081 88.350, 135.500 90 C 133.919 91.650, 131.914 93, 131.045 93 C 129 93, 109 113.043, 109 115.093 C 109 115.950, 107.875 117.708, 106.500 119 C 105.125 120.292, 104 122.115, 104 123.052 C 104 123.989, 103.325 125.315, 102.500 126 C 101.675 126.685, 101 128.035, 101 129 C 101 129.965, 100.325 131.315, 99.500 132 C 98.675 132.685, 98 134.090, 98 135.122 C 98 136.155, 97.550 137, 97 137 C 96.450 137, 96 138.520, 96 140.378 C 96 142.235, 95.325 144.315, 94.500 145 C 93.539 145.797, 93 148.010, 93 151.154 C 93 154.595, 92.551 156.235, 91.500 156.638 C 90.448 157.042, 90 158.684, 90 162.138 C 90 165.593, 89.552 167.235, 88.500 167.638 L 87 168.214 87 194.500 L 87 220.786 88.500 221.362 C 89.618 221.791, 90 223.574, 90 228.362 C 90 233.150, 90.382 234.933, 91.500 235.362 C 92.427 235.718, 93 237.238, 93 239.346 C 93 241.221, 93.675 243.315, 94.500 244 C 95.325 244.685, 96 246.765, 96 248.622 C 96 250.480, 96.450 252, 97 252 C 97.550 252, 98 252.845, 98 253.878 C 98 254.910, 98.675 256.315, 99.500 257 C 100.325 257.685, 101 259.035, 101 260 C 101 260.965, 101.675 262.315, 102.500 263 C 103.325 263.685, 104 265.104, 104 266.154 C 104 267.204, 104.675 268.322, 105.500 268.638 C 106.325 268.955, 107 270.217, 107 271.443 C 107 272.778, 108.604 275.112, 111 277.263 C 113.200 279.238, 115 281.596, 115 282.504 C 115 284.496, 120.297 290, 122.215 290 C 122.968 290, 125.571 292.025, 128 294.500 C 130.429 296.975, 132.974 299, 133.655 299 C 134.337 299, 137.010 300.125, 139.596 301.500 C 142.182 302.875, 144.920 304, 145.680 304 C 146.441 304, 147.322 304.675, 147.638 305.500 C 147.955 306.325, 149.243 307, 150.500 307 C 151.757 307, 153.045 307.675, 153.362 308.500 C 153.765 309.551, 155.405 310, 158.846 310 C 161.990 310, 164.203 310.539, 165 311.500 C 166.026 312.736, 169.549 313, 185 313 C 200.451 313, 203.974 312.736, 205 311.500 C 205.750 310.597, 207.938 310, 210.500 310 C 213.062 310, 215.250 309.403, 216 308.500 C 216.685 307.675, 218.765 307, 220.622 307 C 222.480 307, 224 306.594, 224 306.098 C 224 305.602, 225.328 304.733, 226.950 304.167 C 228.573 303.601, 230.698 302.207, 231.673 301.069 C 232.647 299.931, 234.160 299, 235.035 299 C 235.910 299, 237.919 297.650, 239.500 296 C 241.081 294.350, 243.064 293, 243.908 293 C 245.949 293, 257 282, 257 279.968 C 257 279.092, 258.350 277.081, 260 275.500 C 261.650 273.919, 263.008 271.923, 263.017 271.063 C 263.027 270.203, 264.152 268.440, 265.517 267.145 C 266.883 265.850, 268 263.923, 268 262.864 C 268 261.804, 268.675 260.678, 269.500 260.362 C 270.410 260.012, 271 258.500, 271 256.515 C 271 254.717, 271.675 252.685, 272.500 252 C 273.325 251.315, 274 249.965, 274 249 C 274 248.035, 274.671 246.688, 275.490 246.008 C 276.393 245.259, 276.759 243.887, 276.418 242.529 C 276.078 241.175, 276.478 239.665, 277.428 238.715 C 278.514 237.629, 279 235.256, 279 231.040 C 279 226.538, 279.393 224.786, 280.500 224.362 L 282 223.786 282 194.822 L 282 165.857 280.433 164.291 C 279.434 163.291, 278.966 161.348, 279.142 158.921 C 279.324 156.389, 278.829 154.468, 277.660 153.176 C 276.486 151.879, 276.110 150.412, 276.526 148.753 C 276.965 147.003, 276.684 146.093, 275.574 145.667 C 274.568 145.281, 274 143.833, 274 141.654 C 274 139.779, 273.325 137.685, 272.500 137 C 271.675 136.315, 271 134.896, 271 133.846 C 271 132.796, 270.325 131.678, 269.500 131.362 C 268.675 131.045, 268 129.709, 268 128.393 C 268 127.077, 267.637 126, 267.192 126 C 266.334 126, 263 119.055, 263 117.266 C 263 115.534, 236.670 90, 234.884 90 C 233.983 90, 232.685 89.325, 232 88.500 C 231.315 87.675, 229.910 87, 228.878 87 C 227.845 87, 227 86.550, 227 86 C 227 85.450, 226.155 85, 225.122 85 C 224.090 85, 222.685 84.325, 222 83.500 C 221.315 82.675, 219.221 82, 217.346 82 C 215.238 82, 213.718 81.427, 213.362 80.500 C 212.961 79.457, 211.333 79, 208.015 79 C 204.995 79, 202.788 78.450, 202 77.500 C 200.986 76.278, 197.712 76, 184.346 76 C 170.683 76, 167.841 76.251, 167.362 77.500 M 481 169.500 C 480.315 170.325, 478.235 171, 476.378 171 C 474.520 171, 473 171.450, 473 172 C 473 172.550, 472.155 173, 471.122 173 C 470.090 173, 468.685 173.675, 468 174.500 C 467.315 175.325, 466.010 176, 465.099 176 C 463.066 176, 451.007 187.983, 450.983 190.027 C 450.973 190.837, 449.848 192.560, 448.483 193.855 C 447.117 195.150, 446 197.077, 446 198.136 C 446 199.196, 445.325 200.322, 444.500 200.638 C 443.590 200.988, 443 202.500, 443 204.485 C 443 206.283, 442.325 208.315, 441.500 209 C 440.675 209.685, 440 211.779, 440 213.654 C 440 215.762, 439.427 217.282, 438.500 217.638 C 437.320 218.091, 437 220.140, 437 227.247 C 437 234.665, 436.687 236.523, 435.250 237.640 L 433.500 239 435.250 240.360 C 436.713 241.497, 437 243.390, 437 251.892 C 437 260.010, 437.303 262.179, 438.500 262.638 C 439.572 263.050, 440 264.724, 440 268.500 C 440 272.276, 440.428 273.950, 441.500 274.362 C 442.325 274.678, 443 275.796, 443 276.846 C 443 277.896, 443.675 279.315, 444.500 280 C 445.325 280.685, 446 282.090, 446 283.122 C 446 284.155, 446.450 285, 447 285 C 447.550 285, 448 286.139, 448 287.531 C 448 288.924, 448.675 290.322, 449.500 290.638 C 450.325 290.955, 451 292.066, 451 293.107 C 451 295.233, 462.275 307, 464.313 307 C 465.035 307, 466.919 308.350, 468.500 310 C 470.540 312.130, 472.318 313, 474.628 313 C 476.418 313, 478.160 313.450, 478.500 314 C 478.869 314.597, 485.324 315, 494.500 315 C 503.676 315, 510.131 314.597, 510.500 314 C 510.840 313.450, 511.936 313, 512.937 313 C 513.937 313, 515.315 312.325, 516 311.500 C 516.685 310.675, 517.885 310, 518.667 310 C 520.962 310, 538 292.619, 538 290.278 C 538 289.143, 538.722 287.937, 539.604 287.599 C 540.486 287.260, 540.963 286.345, 540.663 285.565 C 540.364 284.785, 540.767 283.608, 541.559 282.951 C 542.352 282.293, 543 280.965, 543 280 C 543 279.035, 543.675 277.685, 544.500 277 C 545.325 276.315, 546 274.221, 546 272.346 C 546 270.238, 546.573 268.718, 547.500 268.362 C 548.552 267.958, 549 266.316, 549 262.862 C 549 259.362, 549.443 257.767, 550.531 257.350 C 552.680 256.525, 552.568 230.716, 550.408 228.923 C 549.471 228.146, 549 225.655, 549 221.485 C 549 216.833, 548.613 215.065, 547.500 214.638 C 546.555 214.276, 546 212.744, 546 210.500 C 546 208.256, 545.445 206.724, 544.500 206.362 C 543.675 206.045, 543 204.747, 543 203.476 C 543 202.206, 542.525 201.008, 541.946 200.815 C 541.366 200.622, 540.772 199.653, 540.627 198.662 C 540.481 197.672, 539.156 195.583, 537.681 194.020 C 536.207 192.458, 534.990 190.577, 534.978 189.840 C 534.944 187.723, 523.184 176, 521.096 176 C 520.061 176, 518.955 175.325, 518.638 174.500 C 518.322 173.675, 516.924 173, 515.531 173 C 514.139 173, 513 172.550, 513 172 C 513 171.450, 511.480 171, 509.622 171 C 507.765 171, 505.685 170.325, 505 169.500 C 504.035 168.337, 501.340 168, 493 168 C 484.660 168, 481.965 168.337, 481 169.500 M 626 193.849 C 626 194.560, 626.675 195.818, 627.500 196.643 C 628.371 197.513, 629 199.956, 629 202.464 C 629 205.383, 629.487 206.973, 630.500 207.362 C 631.700 207.822, 632 210.016, 632 218.346 C 632 226.532, 632.331 229.030, 633.552 230.043 C 634.805 231.083, 635.068 233.462, 634.922 242.415 L 634.742 253.500 642.539 254 C 647.506 254.319, 650.487 254.954, 650.751 255.750 C 650.980 256.438, 652.649 257, 654.461 257 C 656.273 257, 658.315 257.675, 659 258.500 C 659.685 259.325, 661.035 260, 662 260 C 662.965 260, 664.315 260.675, 665 261.500 C 665.685 262.325, 667.090 263, 668.122 263 C 669.155 263, 670 263.450, 670 264 C 670 264.550, 670.816 265, 671.813 265 C 672.810 265, 674.919 266.350, 676.500 268 C 678.081 269.650, 680.135 271, 681.065 271 C 681.994 271, 683.315 271.675, 684 272.500 C 684.685 273.325, 686.738 274, 688.563 274 C 690.389 274, 692.160 274.450, 692.500 275 C 692.840 275.550, 695.061 276, 697.437 276 C 700.055 276, 702.245 276.590, 703 277.500 C 703.968 278.666, 706.681 279, 715.194 279 C 723.593 279, 726.492 278.651, 727.643 277.500 C 728.468 276.675, 730.327 276, 731.774 276 C 734.751 276, 741.120 270.477, 740.377 268.539 C 740.119 267.869, 740.604 266.743, 741.454 266.038 C 742.333 265.309, 743 263.177, 743 261.096 L 743 257.437 737.250 251.823 C 734.087 248.735, 730.487 245.907, 729.250 245.537 C 728.013 245.168, 727 244.446, 727 243.933 C 727 243.420, 725.923 243, 724.607 243 C 723.291 243, 721.955 242.325, 721.638 241.500 C 721.322 240.675, 719.972 240, 718.638 240 C 717.305 240, 715.955 239.325, 715.638 238.500 C 715.280 237.565, 713.754 237, 711.590 237 C 709.681 237, 707.840 236.550, 707.500 236 C 707.160 235.450, 705.614 235, 704.063 235 C 702.513 235, 700.685 234.325, 700 233.500 C 699.315 232.675, 697.965 232, 697 232 C 696.035 232, 694.685 231.325, 694 230.500 C 693.315 229.675, 691.221 229, 689.346 229 C 687.238 229, 685.718 228.427, 685.362 227.500 C 685.009 226.582, 683.493 226, 681.452 226 C 679.618 226, 677.840 225.550, 677.500 225 C 677.160 224.450, 676.064 224, 675.063 224 C 674.063 224, 672.685 223.325, 672 222.500 C 671.315 221.675, 669.965 221, 669 221 C 668.035 221, 666.685 220.325, 666 219.500 C 665.315 218.675, 663.896 218, 662.846 218 C 661.796 218, 660.678 217.325, 660.362 216.500 C 660.045 215.675, 658.757 215, 657.500 215 C 656.243 215, 654.955 214.325, 654.638 213.500 C 654.322 212.675, 653.227 212, 652.206 212 C 651.184 212, 649.292 210.875, 648 209.500 C 646.708 208.125, 644.921 207, 644.029 207 C 643.136 207, 640.648 205.200, 638.500 203 C 636.352 200.800, 633.985 199, 633.241 199 C 632.496 199, 630.563 197.550, 628.944 195.777 C 627.325 194.005, 626 193.137, 626 193.849 M 849.362 308.500 C 849.012 309.410, 847.500 310, 845.515 310 C 843.717 310, 841.685 310.675, 841 311.500 C 840.315 312.325, 839.220 313, 838.565 313 C 834.387 313, 824 321.004, 824 324.223 C 824 324.995, 822.650 326.919, 821 328.500 C 819.350 330.081, 818 331.997, 818 332.759 C 818 333.520, 817.325 334.818, 816.500 335.643 C 815.306 336.836, 815 340.066, 815 351.449 C 815 362.946, 815.295 366, 816.500 367 C 817.325 367.685, 818 369.035, 818 370 C 818 370.965, 818.675 372.315, 819.500 373 C 820.325 373.685, 821 374.905, 821 375.713 C 821 377.491, 830.665 387, 832.471 387 C 833.177 387, 834.315 387.675, 835 388.500 C 835.685 389.325, 837.035 390, 838 390 C 838.965 390, 840.315 390.675, 841 391.500 C 841.685 392.325, 843.035 393, 844 393 C 844.965 393, 846.315 393.675, 847 394.500 C 847.958 395.655, 850.604 396, 858.500 396 C 866.396 396, 869.042 395.655, 870 394.500 C 870.685 393.675, 872.779 393, 874.654 393 C 876.762 393, 878.282 392.427, 878.638 391.500 C 878.955 390.675, 879.953 389.994, 880.857 389.988 C 883.099 389.971, 896 377.189, 896 374.985 C 896 374.011, 896.667 372.958, 897.483 372.645 C 898.299 372.332, 898.718 371.429, 898.415 370.639 C 898.112 369.849, 898.344 368.905, 898.932 368.542 C 900.396 367.637, 900.396 335.363, 898.932 334.458 C 898.344 334.095, 898.093 333.201, 898.372 332.472 C 898.652 331.743, 898.233 330.608, 897.441 329.951 C 896.648 329.293, 896 328.106, 896 327.313 C 896 325.282, 884.975 315, 882.798 315 C 881.809 315, 881 314.550, 881 314 C 881 313.450, 880.155 313, 879.122 313 C 878.090 313, 876.685 312.325, 876 311.500 C 875.315 310.675, 873.290 310, 871.500 310 C 869.710 310, 867.685 309.325, 867 308.500 C 866.085 307.398, 863.656 307, 857.846 307 C 851.738 307, 849.806 307.342, 849.362 308.500" stroke="none" fill="#26b052" fill-rule="evenodd"/></svg>